<svg xmlns="http://www.w3.org/2000/svg" width="499.79" height="146.74" viewBox="0 0 499.79 146.74"><defs><style>.a{fill:#fbe337;}</style></defs><title>workspace-logo</title><path class="a" d="M34.53,59.4H27.18L21.36,25.3,15.79,59.4H8.44L0,3.1H8.44l4.22,33.68L18,3.1h7l5.57,33.68L34.87,3.1h8.19Z"/><path class="a" d="M74.71,41.42v1.69a43.41,43.41,0,0,1-.51,6.63,12.47,12.47,0,0,1-2.79,6A11.81,11.81,0,0,1,67,59.07a14.06,14.06,0,0,1-10.89,0,11.83,11.83,0,0,1-4.44-3.29A12.1,12.1,0,0,1,48.92,50a42.57,42.57,0,0,1-.63-6.33V21.16a66.9,66.9,0,0,1,.42-7.6,13,13,0,0,1,3-6.84,11.44,11.44,0,0,1,4.39-3.33,13.61,13.61,0,0,1,5.49-1.14A13.32,13.32,0,0,1,67,3.39a12.25,12.25,0,0,1,4.43,3.33,11.33,11.33,0,0,1,2.53,5.07,37.75,37.75,0,0,1,.76,5.66v24ZM66.27,21v-4.3a13.38,13.38,0,0,0-1.05-4.48q-.89-2-3.67-2a3.84,3.84,0,0,0-3.21,1.4A6.66,6.66,0,0,0,57,14.92q-.17,1.69-.21,3.46c0,1.18,0,2.37,0,3.54V41.26a4.75,4.75,0,0,0,.09.93v2.2c0,.39,0,.8,0,1.22s0,.83,0,1.23A11.26,11.26,0,0,0,58,50.67q.89,1.73,3.51,1.73A3.91,3.91,0,0,0,64.79,51a6.19,6.19,0,0,0,1.31-3.38,31.28,31.28,0,0,0,.17-3.25V21Z"/><path class="a" d="M99.87,59.4l-5.4-23.47h-4V59.4H82.06V3.1H93.88q8.18,0,11.14,4.47t3,12a28.62,28.62,0,0,1-1,7.85,11.94,11.94,0,0,1-4.65,6.25l6.5,25.75Zm-.38-41.2c0-.45-.07-.93-.13-1.44A10.33,10.33,0,0,0,99,15a12.57,12.57,0,0,0-.59-1.65,3.34,3.34,0,0,0-2.19-2,14.28,14.28,0,0,0-3-.3H90.5V28h2.7a14.31,14.31,0,0,0,3-.3,3.34,3.34,0,0,0,2.19-2A12.57,12.57,0,0,0,99,24.07a10.29,10.29,0,0,0,.34-1.82c.06-.45.09-.91.13-1.39s0-.91,0-1.31S99.52,18.66,99.49,18.21Z"/><path class="a" d="M134.39,59.4l-7.17-26.17-3.88,7.85V59.4h-8.44V3.1h8.44V25.64L133.21,3.1h8.87l-9.71,19.59,11,36.72Z"/><path class="a" d="M207.78,136.26q-9.1,10.49-24.92,10.48-16.9,0-26-11.12t-9.52-27.17L167.88,105a20.84,20.84,0,0,0,.11,2.14c.07.72.11,1.43.11,2.14A29.83,29.83,0,0,0,172,121.5q3.21,5.56,11.12,5.56,6.84,0,9.95-4.81a19.54,19.54,0,0,0,3.1-10.8,22.63,22.63,0,0,0-4.06-13.16A77.51,77.51,0,0,0,182,86.63q-2.14-1.92-4.49-4.17t-4.71-4.39A118.85,118.85,0,0,1,156.55,60q-7.27-9.95-7.27-24.71,0-15.18,9-25.24T182.86,0q16,0,23.42,9.84t8.88,24.39l-20.54,3v-.54a.74.74,0,0,0-.21-.54,36.26,36.26,0,0,0-2.89-11q-2.25-5-9.52-5-6,0-9,4.28a16.72,16.72,0,0,0-3,9.84,23.83,23.83,0,0,0,4.38,14.11,72.2,72.2,0,0,0,10.8,12L189.27,64l4.28,3.85a119.93,119.93,0,0,1,16,17.75q7.27,9.84,7.27,25T207.78,136.26Z"/><path class="a" d="M289.62,48.66a29.09,29.09,0,0,1-.22,3.53,62.52,62.52,0,0,1-2.46,14.12,27.12,27.12,0,0,1-7.38,12,21.3,21.3,0,0,1-9.31,5.56,54.4,54.4,0,0,1-10.8,1.92A26.9,26.9,0,0,1,256,86h-12v58.83H222.67V2.14h29.95a86.58,86.58,0,0,1,14.44,1.18,23.49,23.49,0,0,1,12.51,6.52,24.64,24.64,0,0,1,7,10.8,61.67,61.67,0,0,1,2.67,12.94c.14,2,.25,4,.32,5.88s.11,3.82.11,5.67ZM265.34,27.38q-2.89-5.14-14.44-5.14h-6.85V65.88h6.85q12.62,0,15-6t2.35-16.68Q268.23,32.51,265.34,27.38Z"/><path class="a" d="M339.53,144.82l-4.92-31.45H311.5l-4.71,31.45H285.62L308.72,2.14h28l24.81,142.68ZM322.63,36.58l-8.13,56.9h16.9Z"/><path class="a" d="M433.67,100.64v1.18q0,4.71-.11,8.77a45.57,45.57,0,0,1-1,8.13,34.86,34.86,0,0,1-1.39,5.67,45.43,45.43,0,0,1-2.46,5.88,27.84,27.84,0,0,1-11.66,12.3A35.53,35.53,0,0,1,386.61,144a32,32,0,0,1-11.34-8.34,32.7,32.7,0,0,1-7.49-16.9,156.53,156.53,0,0,1-1.07-18.61V46.84a155.81,155.81,0,0,1,1.07-18.72,32.64,32.64,0,0,1,7.49-16.79A31,31,0,0,1,386.5,2.89,33.76,33.76,0,0,1,400.3,0a34.68,34.68,0,0,1,16.47,4,29.53,29.53,0,0,1,12,11.87l.86,1.71q.42.86.86,1.71a35.67,35.67,0,0,1,2.78,11.23q.43,5.67.43,11.87v7.06h-21.6V35.94A27.31,27.31,0,0,0,409.49,25q-2.36-4.92-9.41-4.92-5.35,0-8,3.53a17.44,17.44,0,0,0-3.31,8.45c-.14,1.57-.29,3.14-.43,4.71s-.22,3.14-.22,4.7v64q0,2.36.22,4.7c.14,1.57.29,3.14.43,4.71a18.61,18.61,0,0,0,3.31,8.45q2.67,3.74,8,3.74,6.42,0,8.66-4.28a27.3,27.3,0,0,0,2.89-9.41c0-1.14,0-2.25.11-3.31s.1-2.1.1-3.1v-.85c0-1,0-2,.11-3s.11-2,.11-3V94.33h21.6v6.31Z"/><path class="a" d="M441.6,144.82V2.14h58.18V22.25H463V61h26.31V80.86H463v44.06h36.79v19.89Z"/></svg>